<svg width="150" height="150" xmlns="http://www.w3.org/2000/svg" xmlns:svg="http://www.w3.org/2000/svg" xmlns:xlink="http://www.w3.org/1999/xlink">
    <!-- Created with SVG-edit - https://github.com/SVG-Edit/svgedit-->
    <defs>
        <symbol id="svg_1" viewBox="0 0 24 24" height="24" width="24" xmlns="http://www.w3.org/2000/svg">
            <path d="m24,4.557c-0.883,0.392 -1.832,0.656 -2.828,0.775c1.017,-0.609 1.798,-1.574 2.165,-2.724c-0.951,0.564 -2.005,0.974 -3.127,1.195c-0.897,-0.957 -2.178,-1.555 -3.594,-1.555c-3.179,0 -5.515,2.966 -4.797,6.045c-4.091,-0.205 -7.719,-2.165 -10.148,-5.144c-1.29,2.213 -0.669,5.108 1.523,6.574c-0.806,-0.026 -1.566,-0.247 -2.229,-0.616c-0.054,2.281 1.581,4.415 3.949,4.89c-0.693,0.188 -1.452,0.232 -2.224,0.084c0.626,1.956 2.444,3.379 4.6,3.419c-2.07,1.623 -4.678,2.348 -7.29,2.04c2.179,1.397 4.768,2.212 7.548,2.212c9.142,0 14.307,-7.721 13.995,-14.646c0.962,-0.695 1.797,-1.562 2.457,-2.549z"/>
        </symbol>
        <symbol width="512" viewBox="0 0 488.471 488.471" height="512" id="svg_5" xmlns="http://www.w3.org/2000/svg">
            <path d="m122.118,0l-61.059,0l0,61.059l-61.059,0l0,61.059l61.059,0l0,305.294l274.765,0l0,-61.059l-213.706,0l0,-366.353z"/>
            <path d="m427.412,366.353l0,-305.294l-274.765,0l0,61.059l213.706,0l0,366.353l61.059,0l0,-61.059l61.059,0l0,-61.059l-61.059,0z"/>
        </symbol>
    </defs>
    <g class="layer">
        <title>Layer 1</title>
        <g id="svg_3"/>
        <g id="svg_7"/>
        <use fill="#000" x="1.93666" y="1.93666" transform="matrix(0.29044808268573696,0,0,0.29044808268573696,-0.06371906027197838,-0.06371906027197838) " xlink:href="#svg_5" id="svg_8"/>
        <g id="svg_9"/>
        <use fill="#000" x="0" y="0" transform="matrix(2.547193704910427,0,0,2.320553207702161,44.08991690723543,48.215863931230174) " xlink:href="#svg_1" id="svg_13"/>
        <g id="svg_14"/>
    </g>
</svg>